<?xml version="1.0" encoding="UTF-8" standalone="no"?><!DOCTYPE svg PUBLIC "-//W3C//DTD SVG 1.1//EN" "http://www.w3.org/Graphics/SVG/1.1/DTD/svg11.dtd"><svg width="100%" height="100%" viewBox="0 0 4000 4000" version="1.1" xmlns="http://www.w3.org/2000/svg" xmlns:xlink="http://www.w3.org/1999/xlink" xml:space="preserve" xmlns:serif="http://www.serif.com/" style="fill-rule:evenodd;clip-rule:evenodd;stroke-linejoin:round;stroke-miterlimit:2;"><circle cx="2000" cy="2000" r="2000" style="fill:#5662f6;"/><clipPath id="_clip1"><circle cx="2000" cy="2000" r="2000"/></clipPath><g clip-path="url(#_clip1)"><rect x="0" y="0" width="4000" height="4000.01" style="fill:#5662f6;"/><g><path d="M2168.19,623.65c332.996,-0 603.035,269.918 603.035,603.035l0,241.214l-1206.07,-0l0,-241.214c0,-333.117 269.919,-603.035 603.035,-603.035l-0.001,-0Zm-180.91,422.125c-0,99.983 81.048,180.91 180.91,180.91c99.862,0 180.91,-80.927 180.91,-180.91c0,-99.983 -81.048,-180.911 -180.91,-180.911c-99.862,0 -180.91,80.928 -180.91,180.911Zm1507.59,1990.02l-723.642,-0l241.213,-361.822l0,-844.251l-241.213,0l-0,723.643c-0,66.696 -54.033,120.607 -120.607,120.607l-241.215,0l120.608,361.821l-723.643,0l120.607,-361.821l-241.214,0c-66.575,0 -120.607,-53.911 -120.607,-120.607l0,-723.643l-241.214,0l0,844.251l241.214,361.822l-723.643,-0l241.214,-361.822l0,-844.251c0,-133.15 108.185,-241.213 241.215,-241.213l1688.5,-0c133.03,-0 241.214,108.063 241.214,241.213l0,844.251l241.214,361.822l0.004,-0Zm-1206.07,-964.859c0,66.696 54.032,120.607 120.607,120.607c66.575,0 120.608,-53.911 120.608,-120.607c-0,-66.696 -54.033,-120.607 -120.608,-120.607c-66.575,-0 -120.607,53.911 -120.607,120.607Z" style="fill:#fff;fill-rule:nonzero;"/><g><circle cx="1213.8" cy="2667.69" r="708.663" style="fill:#5662f6;"/><path d="M1147.82,2733.66c19.184,18.249 19.184,48.195 -0,66.443c-18.249,18.248 -48.195,18.248 -66.443,-0c-90.645,-90.781 -90.645,-240.03 -0,-330.812l165.639,-165.64c90.781,-90.645 240.031,-90.645 330.812,0c90.645,90.782 90.645,240.031 0,330.813l-69.718,69.718c0.468,-38.369 -5.615,-76.737 -18.716,-113.234l21.992,-22.46c26.484,-26.198 41.404,-61.943 41.404,-99.196c-0,-37.254 -14.92,-72.998 -41.404,-99.197c-26.199,-26.484 -61.944,-41.404 -99.197,-41.404c-37.253,0 -72.998,14.92 -99.197,41.404l-165.171,165.172c-26.485,26.199 -41.404,61.943 -41.404,99.197c-0,37.253 14.919,72.997 41.404,99.196l-0.001,0Zm131.95,-198.393c18.248,-18.248 48.194,-18.248 66.443,0c90.645,90.781 90.645,240.03 -0,330.812l-165.64,165.64c-90.781,90.645 -240.03,90.645 -330.812,-0c-90.645,-90.782 -90.645,-240.031 0,-330.813l69.718,-69.718c-0.468,38.369 5.615,76.737 18.717,113.702l-21.992,21.992c-26.485,26.198 -41.404,61.943 -41.404,99.196c-0,37.254 14.919,72.998 41.404,99.197c26.199,26.484 61.943,41.404 99.197,41.404c37.253,-0 72.997,-14.92 99.196,-41.404l165.172,-165.172c26.484,-26.199 41.404,-61.943 41.404,-99.197c-0,-37.253 -14.92,-72.997 -41.404,-99.196c-9.182,-8.603 -14.398,-20.639 -14.398,-33.222c0,-12.582 5.216,-24.618 14.398,-33.221l0.001,0Z" style="fill:#fff;"/></g></g></g></svg>